#define im_width 32
#define im_height 32
static char im_bits[] = {
0x00,0x80,0x01,0x00,0x00,0x00,0x01,0x00,0x00,0x80,0x01,0x00,0x00,0x40,0x01,
0x00,0x00,0x60,0x01,0x00,0x00,0xa0,0x01,0x00,0x00,0x60,0x01,0x00,0x00,0xa0,
0x01,0x00,0x00,0xa0,0x00,0x00,0x00,0x40,0x01,0x00,0x00,0xa0,0x00,0x00,0x00,
0xd0,0x02,0x00,0x00,0x50,0x03,0x00,0x00,0xd0,0x02,0x00,0x00,0x50,0x01,0x00,
0x00,0xa8,0x06,0x00,0x00,0xa8,0x04,0x00,0x00,0xa8,0x09,0x00,0x00,0x54,0x16,
0x00,0x00,0xa4,0x29,0x00,0x00,0xf4,0x6a,0x00,0x80,0xd5,0x97,0x03,0xa0,0x3a,
0x2a,0x1a,0xb0,0x1a,0xfe,0x1f,0x40,0x2b,0xea,0x00,0xc0,0xfa,0xbb,0x01,0x00,
0xa2,0x55,0x00,0x00,0xd8,0x00,0x00,0x00,0x90,0x00,0x00,0x00,0xa0,0x00,0x00,
0x00,0xa0,0x00,0x00,0x00,0xc0,0x00,0x00
};
